<svg width="88" height="32" viewBox="0 0 88 32" fill="none" xmlns="http://www.w3.org/2000/svg">
<path d="M23.4444 4H12.5556C11.2674 4 10.2174 5.02188 10.266 6.25938C10.2757 6.50781 10.2854 6.75625 10.3 7H5.16667C4.52014 7 4 7.50156 4 8.125C4 12.4656 5.62847 15.4844 7.81597 17.5328C9.96944 19.5531 12.5944 20.5703 14.5292 21.0859C15.6667 21.3906 16.4444 22.3047 16.4444 23.2234C16.4444 24.2031 15.6181 25 14.6021 25H13.3333C12.4729 25 11.7778 25.6703 11.7778 26.5C11.7778 27.3297 12.4729 28 13.3333 28H22.6667C23.5271 28 24.2222 27.3297 24.2222 26.5C24.2222 25.6703 23.5271 25 22.6667 25H21.3979C20.3819 25 19.5556 24.2031 19.5556 23.2234C19.5556 22.3047 20.3285 21.3859 21.4708 21.0859C23.4104 20.5703 26.0354 19.5531 28.1889 17.5328C30.3715 15.4844 32 12.4656 32 8.125C32 7.50156 31.4799 7 30.8333 7H25.7C25.7146 6.75625 25.7243 6.5125 25.734 6.25938C25.7826 5.02188 24.7326 4 23.4444 4ZM6.37708 9.25H10.4799C10.9222 13.4734 11.8993 16.2953 13.0028 18.1844C11.7924 17.6688 10.5333 16.9422 9.44444 15.9203C7.88889 14.4625 6.625 12.3578 6.38194 9.25H6.37708ZM26.5604 15.9203C25.4715 16.9422 24.2125 17.6688 23.0021 18.1844C24.1056 16.2953 25.0826 13.4734 25.525 9.25H29.6278C29.3799 12.3578 28.116 14.4625 26.5653 15.9203H26.5604Z" fill="#ECFAFF"/>
<path d="M47.2976 14.0447C47.174 13.6569 47.0078 13.3096 46.799 13.0028C46.5945 12.6918 46.3494 12.4275 46.0639 12.2102C45.7784 11.9886 45.4524 11.8203 45.0859 11.7052C44.7237 11.5902 44.3253 11.5327 43.8906 11.5327C43.1534 11.5327 42.4886 11.7223 41.8963 12.1016C41.304 12.4808 40.8352 13.0369 40.49 13.7699C40.1491 14.4986 39.9787 15.3913 39.9787 16.4481C39.9787 17.5092 40.1513 18.4062 40.4964 19.1392C40.8416 19.8721 41.3146 20.4283 41.9155 20.8075C42.5163 21.1868 43.2003 21.3764 43.9673 21.3764C44.679 21.3764 45.299 21.2315 45.8274 20.9418C46.3601 20.652 46.7713 20.2429 47.0611 19.7145C47.3551 19.1818 47.5021 18.5554 47.5021 17.8352L48.0135 17.9311H44.2677V16.3011H49.4133V17.7905C49.4133 18.8899 49.179 19.8444 48.7102 20.6541C48.2457 21.4595 47.6023 22.0817 46.7798 22.5206C45.9616 22.9595 45.0241 23.179 43.9673 23.179C42.7827 23.179 41.7429 22.9062 40.848 22.3608C39.9574 21.8153 39.2628 21.0419 38.7642 20.0405C38.2656 19.0348 38.0163 17.8416 38.0163 16.4609C38.0163 15.4169 38.1612 14.4794 38.451 13.6484C38.7408 12.8175 39.1477 12.1122 39.6719 11.5327C40.2003 10.9489 40.8203 10.5035 41.532 10.1967C42.2479 9.88564 43.0298 9.7301 43.8778 9.7301C44.5852 9.7301 45.2436 9.83451 45.853 10.0433C46.4666 10.2521 47.0121 10.5483 47.4893 10.9318C47.9709 11.3153 48.3693 11.7713 48.6847 12.2997C49 12.8239 49.2131 13.4055 49.3239 14.0447H47.2976Z" fill="#ECFAFF"/>
<path d="M52.6222 23H50.5256L55.2365 9.90908H57.5185L62.2294 23H60.1328L56.4318 12.2869H56.3295L52.6222 23ZM52.9737 17.8736H59.7748V19.5355H52.9737V17.8736Z" fill="#ECFAFF"/>
<path d="M64.1198 23V9.90908H72.2377V11.6094H66.095V15.598H71.6561V17.2919H66.095V23H64.1198Z" fill="#ECFAFF"/>
<path d="M74.6667 23V9.90908H82.8741V11.6094H76.6419V15.598H82.4458V17.2919H76.6419V21.2997H82.9508V23H74.6667Z" fill="#ECFAFF"/>
</svg>
