<svg width="28" height="25" viewBox="0 0 28 25" fill="none" xmlns="http://www.w3.org/2000/svg">
<path d="M7.51502 2.7105L7.51501 2.71031C7.4969 2.24926 7.90764 1.75 8.55556 1.75H19.4444C20.0924 1.75 20.5031 2.24926 20.485 2.71031L20.4849 2.7114C20.4752 2.96508 20.4659 3.19655 20.4522 3.42535L20.3731 4.74828L20.2818 5.61979C19.8528 9.71567 18.9148 12.3555 17.9227 14.0539L16.4042 16.6535C15.2041 17.2329 14.3056 18.3755 14.3056 19.7234C14.3056 21.4359 15.7348 22.75 17.3979 22.75H18.6667C18.88 22.75 18.9722 22.9031 18.9722 23C18.9722 23.0969 18.88 23.25 18.6667 23.25H9.33333C9.12004 23.25 9.02778 23.0969 9.02778 23C9.02778 22.9031 9.12004 22.75 9.33333 22.75H10.6021C12.2652 22.75 13.6944 21.4359 13.6944 19.7234C13.6944 18.3745 12.7932 17.2408 11.6046 16.6603L10.0821 14.0539C9.09004 12.3555 8.15206 9.71567 7.72306 5.61979L7.62044 4.64003L7.54777 3.42535C7.53409 3.19668 7.52483 2.96125 7.51502 2.7105ZM1.25049 4.75H2.37708V5.75V5.75038L1.29746 5.83482C1.26934 5.48444 1.2534 5.12295 1.25049 4.75Z" stroke="#ECFAFF" stroke-width="2.5"/>
</svg>
